<mxfile host="app.diagrams.net" modified="2023-04-28T21:47:36.020Z" agent="Mozilla/5.0 (X11; Linux x86_64) AppleWebKit/537.36 (KHTML, like Gecko) Chrome/112.0.0.0 Safari/537.36" version="21.2.3" etag="Oviq1bq9ldZ_2M2J3hp8" type="github">
  <diagram name="PÃ¡gina-1" id="F0hu4vnTS8iwGIbh8dB1">
    <mxGraphModel>
      <root>
        <mxCell id="0" />
        <mxCell id="1" parent="0" />
      </root>
    </mxGraphModel>
  </diagram>
</mxfile>
